<svg id="svg" version="1.1" xmlns="http://www.w3.org/2000/svg" xmlns:xlink="http://www.w3.org/1999/xlink" width="400" height="400" viewBox="0, 0, 400,400"><g id="svgg"><path id="path0" d="M224.287 86.293 C 214.574 88.054,207.413 93.471,177.731 121.513 C 171.136 127.743,165.106 133.394,164.330 134.071 C 159.256 138.494,161.338 145.556,167.717 145.556 C 171.122 145.556,172.627 144.501,183.711 134.352 C 194.612 124.371,194.301 124.557,196.944 126.439 C 199.961 128.587,203.188 129.999,206.031 130.413 C 207.501 130.628,209.226 130.888,209.864 130.992 C 210.511 131.098,211.134 131.003,211.274 130.776 C 211.412 130.553,212.060 130.370,212.714 130.370 C 219.235 130.370,229.808 124.027,235.891 116.465 C 241.344 109.687,243.096 105.262,243.103 98.256 L 243.107 93.364 241.748 91.404 C 238.816 87.177,231.396 85.005,224.287 86.293 M245.025 96.269 C 244.617 96.719,244.251 98.049,244.030 99.880 C 242.496 112.589,232.345 124.550,218.444 130.029 C 217.398 130.442,216.074 131.112,215.503 131.519 C 214.798 132.021,213.357 132.391,211.028 132.667 C 207.712 133.061,206.667 133.413,206.667 134.137 C 206.667 135.327,229.742 158.519,230.926 158.519 C 233.824 158.519,248.876 143.005,254.750 133.966 C 261.053 124.266,260.170 112.629,252.286 101.481 C 248.472 96.090,246.481 94.660,245.025 96.269 M154.597 163.241 C 150.084 167.835,151.550 173.031,157.381 173.110 C 159.919 173.145,161.732 172.197,162.761 170.298 L 163.485 168.962 162.450 167.469 C 161.081 165.493,157.241 161.852,156.527 161.852 C 156.216 161.852,155.348 162.477,154.597 163.241 M160.627 175.177 C 156.180 179.165,155.810 179.690,155.623 182.280 C 155.309 186.626,160.432 189.168,164.112 186.492 C 164.804 185.989,165.971 185.169,166.704 184.670 C 168.922 183.163,171.111 180.063,171.111 178.430 C 171.111 177.299,169.353 174.531,167.812 173.233 C 165.670 171.431,164.431 171.766,160.627 175.177 M171.370 182.315 C 169.297 184.880,169.157 185.315,169.645 187.665 C 170.385 191.233,172.140 192.270,176.246 191.567 C 182.104 190.563,183.240 185.561,178.194 182.986 C 177.456 182.609,176.534 181.950,176.146 181.521 C 174.875 180.115,172.879 180.447,171.370 182.315 M78.941 185.463 C 72.561 209.251,81.123 232.336,99.823 241.764 C 102.992 243.361,106.579 244.779,106.826 244.532 C 106.942 244.416,107.037 244.480,107.037 244.674 C 107.037 244.869,107.397 245.055,107.837 245.088 C 108.277 245.121,108.745 245.322,108.876 245.534 C 109.157 245.990,114.302 247.797,114.566 247.533 C 114.665 247.434,115.220 247.597,115.799 247.895 C 116.378 248.193,117.519 248.541,118.333 248.668 C 120.379 248.987,121.508 249.195,122.593 249.453 C 123.590 249.689,125.237 249.934,127.593 250.194 C 128.407 250.284,129.907 250.451,130.926 250.565 C 136.952 251.240,144.222 251.437,147.725 251.020 C 150.772 250.658,150.458 250.371,147.006 250.362 C 141.038 250.347,136.742 247.195,139.907 245.155 C 142.548 243.452,143.460 240.828,143.617 234.478 C 143.778 227.963,143.447 226.978,140.648 225.641 C 139.681 225.179,138.889 224.649,138.889 224.464 C 138.889 223.161,145.061 220.832,149.444 220.480 C 150.870 220.365,152.287 220.123,152.593 219.940 C 153.112 219.630,148.700 219.782,145.000 220.202 C 142.419 220.494,127.679 220.548,125.556 220.272 C 124.435 220.127,122.769 219.905,121.852 219.779 C 120.935 219.653,119.852 219.505,119.444 219.452 C 119.037 219.398,118.704 219.314,118.704 219.266 C 118.704 219.191,117.558 219.022,115.648 218.816 C 115.394 218.788,115.185 218.627,115.185 218.457 C 115.185 218.287,114.630 218.148,113.951 218.148 C 113.272 218.148,112.600 218.032,112.458 217.891 C 112.317 217.749,111.956 217.582,111.656 217.520 C 110.670 217.316,109.816 217.095,109.722 217.019 C 109.671 216.978,109.505 216.917,109.352 216.884 C 109.199 216.851,107.523 216.045,105.627 215.093 C 93.461 208.985,86.518 200.473,82.923 187.257 C 81.626 182.492,81.677 182.593,80.574 182.593 C 79.810 182.593,79.622 182.924,78.941 185.463 " stroke="none" fill="#4793a7" fill-rule="evenodd"></path><path id="path1" d="M121.481 155.503 C 121.481 155.712,119.118 161.851,116.229 169.145 L 110.976 182.407 109.763 179.815 C 109.095 178.389,108.016 175.639,107.366 173.704 C 106.227 170.313,103.555 163.743,101.117 158.333 C 100.118 156.117,99.892 155.840,99.566 156.422 C 98.568 158.207,94.359 168.496,92.829 172.897 C 91.885 175.609,90.696 178.539,90.186 179.409 C 88.017 183.111,88.967 184.459,93.666 184.343 C 98.325 184.229,98.148 183.902,98.148 192.618 C 98.148 200.364,98.193 200.502,100.622 200.302 L 102.037 200.185 102.222 192.703 C 102.453 183.378,101.520 184.275,111.024 184.238 C 121.120 184.198,120.370 183.520,120.370 192.687 C 120.370 200.098,120.444 200.370,122.436 200.370 C 124.286 200.370,124.388 199.982,124.513 192.460 C 124.648 184.413,124.620 184.475,128.126 184.401 C 133.622 184.284,133.616 184.350,129.113 172.674 C 122.873 156.492,121.481 153.361,121.481 155.503 M191.111 209.481 C 186.884 211.464,172.483 215.431,160.185 218.000 C 156.519 218.766,153.352 219.606,153.148 219.867 C 152.944 220.128,151.323 220.519,149.546 220.736 C 144.609 221.338,139.259 223.261,139.259 224.434 C 139.259 224.638,139.878 225.063,140.635 225.380 C 143.760 226.686,144.120 227.815,143.756 235.185 C 143.437 241.637,142.587 244.103,140.248 245.363 C 137.086 247.065,141.179 250.000,146.715 250.000 C 148.345 250.000,149.959 250.144,150.302 250.321 C 151.751 251.067,165.215 249.263,173.631 247.196 C 184.024 244.643,196.125 240.644,195.298 240.034 C 195.134 239.914,195.000 234.926,195.000 228.950 L 195.000 218.085 193.769 217.098 C 189.276 213.495,187.919 210.382,190.833 210.362 C 191.983 210.354,195.185 209.148,195.185 208.722 C 195.185 208.202,192.950 208.619,191.111 209.481 " stroke="none" fill="#286e6c" fill-rule="evenodd"></path><path id="path2" d="M275.000 52.602 C 275.614 52.890,275.520 52.944,274.444 52.918 C 272.036 52.862,271.882 52.928,271.553 54.167 L 271.234 55.370 268.576 55.276 L 265.918 55.181 267.033 56.720 C 268.470 58.703,268.437 59.337,266.832 60.661 L 265.516 61.746 266.661 62.220 C 268.829 63.118,268.814 63.734,266.519 68.236 C 263.856 73.458,263.761 73.061,268.417 76.104 C 288.395 89.163,292.403 112.571,279.230 139.259 C 274.291 149.267,273.937 150.725,275.945 152.797 L 277.183 154.074 276.387 156.574 C 274.630 162.096,274.399 167.917,275.753 172.593 C 276.077 173.713,276.439 176.507,276.556 178.802 C 276.803 183.598,276.508 184.283,274.029 184.680 C 271.683 185.055,270.632 187.239,272.296 188.282 C 272.816 188.608,273.376 188.241,275.529 186.163 C 277.192 184.557,278.302 183.748,278.603 183.921 C 278.862 184.071,278.949 184.055,278.796 183.886 C 278.643 183.718,280.416 181.649,282.735 179.290 C 288.268 173.662,291.383 170.106,293.955 166.481 C 295.111 164.852,296.557 162.980,297.169 162.321 C 297.780 161.663,298.709 160.387,299.233 159.485 C 299.757 158.583,301.131 156.622,302.288 155.127 C 307.263 148.693,317.334 128.274,319.757 119.708 C 326.712 95.120,318.994 72.504,300.370 62.903 C 299.046 62.220,297.512 61.204,296.961 60.646 C 296.410 60.087,295.642 59.630,295.254 59.630 C 294.866 59.630,293.946 59.061,293.209 58.367 C 291.947 57.176,287.112 55.185,285.483 55.185 C 285.139 55.185,284.304 54.859,283.627 54.459 C 282.381 53.724,278.972 52.840,275.926 52.462 C 274.736 52.314,274.471 52.354,275.000 52.602 M153.360 88.701 C 139.614 91.809,126.681 109.871,128.877 122.892 C 130.023 129.689,130.462 130.249,156.497 158.149 C 168.303 170.802,178.253 181.680,178.608 182.324 C 178.962 182.968,179.754 183.887,180.367 184.367 C 180.980 184.846,181.481 185.466,181.481 185.743 C 181.481 186.020,181.856 186.365,182.314 186.511 C 182.772 186.656,184.741 188.319,186.688 190.206 C 191.918 195.273,195.778 195.706,197.969 191.471 C 199.286 188.924,199.122 188.668,188.737 177.050 C 181.976 169.488,180.100 167.177,180.414 166.800 C 181.067 166.012,181.407 166.323,194.444 179.654 C 202.996 188.399,207.312 192.550,208.333 193.014 C 213.593 195.404,218.423 190.814,215.246 186.444 C 214.668 185.650,208.627 179.185,201.820 172.079 C 189.385 159.095,188.736 158.303,189.806 157.415 C 190.858 156.541,190.633 156.320,213.704 180.875 C 218.021 185.470,221.889 189.261,222.670 189.663 C 227.725 192.265,232.372 187.887,230.029 182.729 C 229.379 181.297,212.337 163.018,202.341 153.033 C 200.239 150.932,198.519 149.078,198.519 148.911 C 198.519 148.537,199.592 147.618,199.796 147.818 C 199.877 147.898,205.807 153.759,212.972 160.843 C 220.137 167.927,226.492 173.977,227.094 174.288 C 232.800 177.240,236.216 172.899,233.095 166.662 C 231.533 163.539,231.200 163.171,213.740 145.271 C 196.773 127.875,196.430 127.671,191.368 131.944 C 171.177 148.989,171.613 148.682,167.593 148.682 C 161.445 148.682,157.341 143.431,158.924 137.593 C 159.738 134.593,161.619 132.500,173.494 121.380 C 193.806 102.359,192.042 104.943,187.625 100.686 C 176.984 90.433,164.701 86.137,153.360 88.701 M270.314 153.957 C 270.283 154.123,270.238 154.438,270.215 154.656 C 270.192 154.875,269.764 155.824,269.264 156.766 C 268.250 158.677,268.280 158.786,269.910 159.112 C 272.059 159.542,274.225 156.250,272.734 154.820 C 271.936 154.055,270.398 153.506,270.314 153.957 M262.936 162.870 C 261.261 164.639,259.342 166.963,260.413 165.926 C 261.629 164.748,264.914 161.111,264.762 161.111 C 264.674 161.111,263.852 161.903,262.936 162.870 M256.842 169.352 L 254.259 172.037 256.944 169.454 C 258.421 168.034,259.630 166.826,259.630 166.769 C 259.630 166.498,259.241 166.858,256.842 169.352 M252.593 173.379 C 251.302 174.510,251.301 174.512,252.489 173.722 C 253.145 173.285,253.780 172.770,253.900 172.575 C 254.257 171.997,253.961 172.179,252.593 173.379 M274.630 188.379 L 272.778 190.075 274.722 188.522 C 276.406 187.176,276.939 186.644,276.574 186.674 C 276.523 186.678,275.648 187.445,274.630 188.379 M269.805 193.056 L 267.222 195.741 269.907 193.158 C 272.401 190.759,272.762 190.370,272.490 190.370 C 272.434 190.370,271.225 191.579,269.805 193.056 M262.778 199.495 L 260.185 201.932 262.870 199.632 C 265.213 197.625,265.832 197.007,265.463 197.047 C 265.412 197.052,264.204 198.154,262.778 199.495 M119.630 267.826 C 102.041 270.692,92.040 281.247,90.390 298.686 C 88.038 323.550,107.012 338.398,135.185 333.740 C 143.151 332.423,145.732 330.159,146.008 324.249 C 146.143 321.349,145.340 321.127,142.588 323.302 C 134.133 329.985,122.230 329.953,114.444 323.227 C 104.052 314.248,103.861 289.501,114.109 279.833 C 122.310 272.097,133.885 271.838,140.329 279.247 C 143.562 282.963,145.125 282.495,145.922 277.571 C 146.783 272.250,146.783 272.224,146.093 271.462 C 143.543 268.644,127.845 266.487,119.630 267.826 M55.594 268.796 C 55.122 269.187,53.106 273.640,50.522 280.000 C 40.382 304.963,33.903 320.733,31.661 325.910 C 28.320 333.627,28.392 333.815,34.419 333.068 C 38.559 332.555,38.621 332.472,41.657 323.362 C 44.914 313.592,43.616 314.444,55.229 314.444 L 64.433 314.444 65.565 315.463 C 66.511 316.313,67.122 317.766,69.267 324.259 C 72.530 334.136,71.471 333.317,80.853 333.223 C 90.019 333.131,89.603 334.035,85.157 323.870 C 79.439 310.800,72.299 292.644,65.720 274.444 C 63.964 269.586,63.582 268.993,61.906 268.527 C 59.707 267.917,56.493 268.054,55.594 268.796 M224.164 268.991 C 223.745 269.444,221.365 274.898,218.876 281.111 C 216.386 287.324,212.727 296.241,210.745 300.926 C 205.822 312.559,198.519 330.887,198.519 331.607 C 198.519 332.515,199.639 332.918,202.822 333.155 C 206.401 333.422,207.396 332.998,208.068 330.917 C 214.011 312.522,212.123 314.444,224.239 314.444 C 235.743 314.444,234.423 313.622,237.618 322.778 C 241.415 333.657,240.732 333.102,250.359 333.129 C 258.702 333.152,258.325 333.773,254.790 325.826 C 251.280 317.938,242.761 296.601,237.031 281.349 C 234.516 274.655,232.255 268.974,232.005 268.724 C 231.109 267.829,225.049 268.035,224.164 268.991 M156.479 268.892 C 156.408 269.008,156.522 277.180,156.734 287.052 C 157.018 300.329,157.004 308.554,156.678 318.655 C 156.350 328.809,156.344 332.418,156.655 332.729 C 157.487 333.561,191.782 333.416,192.229 332.579 C 194.191 328.913,192.728 324.554,189.672 324.959 C 180.885 326.125,173.287 326.250,172.282 325.245 C 171.458 324.421,170.925 314.746,171.345 308.239 C 171.697 302.793,171.650 302.831,177.717 303.133 C 192.213 303.854,191.954 303.923,192.167 299.241 C 192.366 294.857,192.911 295.083,182.990 295.428 C 172.509 295.791,172.572 295.794,171.976 294.979 C 171.047 293.709,171.505 277.607,172.498 276.613 C 172.842 276.269,175.071 276.274,182.442 276.632 C 189.227 276.962,192.056 276.981,192.341 276.696 C 192.829 276.208,193.069 270.013,192.626 269.307 C 192.302 268.789,156.795 268.382,156.479 268.892 M267.950 268.883 C 266.585 269.415,266.205 270.228,266.437 272.121 C 267.354 279.589,267.602 314.815,266.832 328.333 C 266.540 333.468,266.027 333.141,274.459 333.186 C 283.085 333.233,282.781 333.388,282.448 329.097 C 281.958 322.779,281.767 288.615,282.173 279.919 C 282.610 270.558,282.488 269.404,281.032 269.108 C 279.402 268.776,268.696 268.592,267.950 268.883 M304.185 268.928 C 302.537 269.405,302.649 268.983,301.251 279.938 C 299.389 294.525,296.975 310.649,294.393 325.741 C 293.201 332.708,293.255 332.812,298.272 333.193 C 302.665 333.527,302.527 333.785,303.175 324.012 C 304.197 308.586,305.347 296.792,306.064 294.366 L 306.534 292.778 307.325 294.306 C 307.761 295.147,308.363 295.929,308.664 296.045 C 309.372 296.316,311.829 301.419,311.924 302.816 C 312.005 303.991,325.136 331.515,326.153 332.638 C 326.988 333.561,329.654 333.590,330.469 332.685 C 330.790 332.329,335.200 323.406,340.270 312.857 C 345.339 302.309,349.810 293.309,350.204 292.857 L 350.921 292.037 351.174 294.815 C 351.313 296.343,352.021 304.509,352.747 312.963 C 354.332 331.408,354.383 331.894,354.817 332.596 C 355.226 333.258,368.727 333.507,369.537 332.868 C 370.184 332.357,370.127 331.211,369.093 323.957 C 368.255 318.077,365.070 291.500,363.384 276.311 C 362.498 268.336,362.692 268.589,357.562 268.710 C 353.308 268.810,353.498 268.653,351.104 274.045 C 341.853 294.876,332.693 312.590,331.789 311.396 C 331.085 310.465,319.392 286.514,315.287 277.593 C 311.370 269.081,309.284 267.454,304.185 268.928 M56.503 289.352 C 56.644 289.810,58.172 293.979,59.899 298.616 C 61.626 303.253,62.943 307.294,62.827 307.597 C 62.570 308.268,50.454 308.417,49.235 307.765 C 47.889 307.045,48.233 305.747,52.585 295.093 C 55.215 288.653,55.954 287.570,56.503 289.352 M228.408 297.806 C 232.000 307.297,232.087 307.589,231.461 307.976 C 230.766 308.405,217.395 308.284,216.955 307.844 C 216.634 307.523,222.609 291.308,223.981 288.777 C 224.463 287.886,225.303 289.598,228.408 297.806 " stroke="none" fill="#1c3455" fill-rule="evenodd"></path><path id="path3" d="M249.074 51.522 C 243.349 52.224,234.332 53.953,225.000 56.140 C 211.517 59.299,181.992 71.352,181.864 73.750 C 181.823 74.524,187.915 73.577,195.000 71.707 C 223.088 64.296,244.162 64.734,263.796 73.135 C 264.248 73.329,264.444 73.245,264.444 72.859 C 264.444 72.554,265.378 70.474,266.519 68.236 C 268.814 63.734,268.829 63.118,266.661 62.220 L 265.516 61.746 266.832 60.661 C 268.437 59.337,268.470 58.703,267.033 56.720 L 265.918 55.181 268.576 55.276 L 271.234 55.370 271.553 54.167 C 271.882 52.930,272.018 52.871,274.444 52.908 L 275.741 52.927 274.194 52.421 C 270.465 51.200,255.942 50.681,249.074 51.522 M274.219 148.446 C 273.789 148.995,272.831 150.394,272.090 151.554 L 270.743 153.664 271.726 154.147 C 274.545 155.531,272.759 159.761,269.645 159.077 C 268.273 158.776,268.254 158.479,269.472 156.401 C 270.347 154.907,270.363 154.813,269.657 155.254 C 269.235 155.518,268.889 155.860,268.889 156.015 C 268.889 156.170,268.597 156.603,268.241 156.979 C 267.884 157.354,267.009 158.394,266.296 159.289 C 263.031 163.389,254.881 171.733,250.045 175.926 C 248.753 177.046,247.351 178.338,246.929 178.796 C 246.508 179.255,246.032 179.630,245.872 179.630 C 245.712 179.630,245.034 180.127,244.365 180.734 C 242.307 182.603,242.043 182.794,240.810 183.305 C 240.153 183.577,239.228 184.259,238.756 184.820 C 236.575 187.412,216.537 198.639,203.333 204.667 C 198.954 206.666,195.204 208.512,195.000 208.769 C 194.451 209.460,192.037 210.370,190.753 210.370 C 187.917 210.370,189.342 213.548,193.769 217.098 L 195.000 218.085 195.000 229.043 C 195.000 238.341,195.081 240.000,195.534 240.000 C 200.057 240.001,235.297 221.715,240.177 216.835 C 240.881 216.131,241.629 215.556,241.840 215.556 C 242.050 215.556,242.222 215.389,242.222 215.185 C 242.222 214.981,242.458 214.815,242.747 214.815 C 243.035 214.815,243.327 214.690,243.395 214.537 C 243.570 214.144,246.988 211.852,247.400 211.852 C 247.587 211.852,247.874 211.622,248.037 211.341 C 248.200 211.060,249.147 210.316,250.142 209.689 C 251.136 209.062,252.470 208.081,253.105 207.509 C 253.740 206.938,255.343 205.639,256.667 204.624 C 257.991 203.609,259.241 202.600,259.444 202.384 C 259.648 202.167,261.138 200.833,262.756 199.421 C 265.582 196.953,269.017 193.728,275.157 187.778 C 276.733 186.250,278.327 184.500,278.698 183.889 L 279.374 182.778 278.483 183.504 C 277.993 183.904,276.548 185.235,275.272 186.462 C 273.337 188.322,272.845 188.626,272.309 188.290 C 270.634 187.240,271.673 185.056,274.029 184.680 C 276.508 184.283,276.803 183.598,276.556 178.802 C 276.439 176.507,276.077 173.713,275.753 172.593 C 274.399 167.917,274.630 162.096,276.387 156.574 L 277.183 154.074 275.945 152.797 C 274.768 151.583,274.718 151.420,274.919 149.464 C 275.036 148.333,275.102 147.417,275.066 147.428 C 275.030 147.439,274.648 147.898,274.219 148.446 " stroke="none" fill="#2c4d74" fill-rule="evenodd"></path><path id="path4" d="M179.484 73.513 C 175.178 75.385,169.800 78.833,170.370 79.357 C 170.623 79.589,184.907 74.489,185.370 74.001 C 185.628 73.730,185.151 73.686,183.796 73.856 C 181.861 74.098,181.454 73.879,182.290 73.043 C 183.192 72.141,182.293 72.292,179.484 73.513 M148.796 220.632 C 149.255 220.720,150.005 220.720,150.463 220.632 C 150.921 220.543,150.546 220.471,149.630 220.471 C 148.713 220.471,148.338 220.543,148.796 220.632 M140.503 222.934 C 139.082 223.801,138.685 224.389,139.183 224.887 C 139.439 225.143,139.542 225.051,139.502 224.600 C 139.466 224.180,139.990 223.622,140.926 223.085 C 141.741 222.617,142.241 222.232,142.037 222.230 C 141.833 222.227,141.143 222.544,140.503 222.934 M142.480 226.656 C 142.724 226.976,143.089 227.651,143.290 228.156 C 143.534 228.766,143.665 228.864,143.680 228.447 C 143.693 228.101,143.329 227.427,142.870 226.947 C 142.412 226.467,142.237 226.336,142.480 226.656 M143.797 230.556 C 143.801 231.370,143.877 231.660,143.966 231.199 C 144.054 230.739,144.051 230.072,143.958 229.718 C 143.865 229.364,143.793 229.741,143.797 230.556 M142.028 242.889 C 141.626 243.640,140.671 244.658,139.907 245.152 C 139.144 245.646,138.519 246.255,138.519 246.505 C 138.519 246.975,140.931 249.269,141.402 249.247 C 141.547 249.240,141.042 248.724,140.278 248.100 C 138.552 246.690,138.543 246.281,140.216 245.380 C 140.989 244.963,141.850 244.063,142.279 243.223 C 143.221 241.375,142.999 241.080,142.028 242.889 M144.259 250.220 C 145.953 250.491,150.655 250.546,150.252 250.289 C 150.012 250.136,148.398 250.031,146.667 250.056 C 144.935 250.081,143.852 250.154,144.259 250.220 M308.327 296.670 C 309.161 299.363,310.096 301.415,310.940 302.407 L 311.885 303.519 311.637 302.222 C 311.326 300.595,309.529 296.981,308.681 296.277 C 308.097 295.793,308.066 295.827,308.327 296.670 " stroke="none" fill="#647f90" fill-rule="evenodd"></path></g></svg>